<svg xmlns="http://www.w3.org/2000/svg" viewBox="0 0 512 512">
  <rect width="512" height="512" rx="96" fill="#A80081"/>
  <!-- Paw icon (Font Awesome fa-paw path) -->
  <g transform="translate(80, 80) scale(0.6875)">
    <path fill="#FFFFFF" d="M256 224c-79.4 0-192 122.76-192 200.29C64 459.22 86.49 480 112 480c31.73 0 57.92-10.49 81.56-19.92C217.27 450.54 236.33 443 256 443s38.73 7.54 62.44 17.08C341.08 469.51 367.27 480 399 480c25.51 0 48-20.78 48-55.71C447 346.76 335.4 224 256 224zm-87.13-112a64 64 0 1 0 64 64 64.07 64.07 0 0 0-64-64zm174.26 0a64 64 0 1 0 64 64 64.07 64.07 0 0 0-64-64zM80 224a48 48 0 1 0 48 48 48 48 0 0 0-48-48zm352 0a48 48 0 1 0 48 48 48 48 0 0 0-48-48z"/>
  </g>
</svg>
